<svg width="90" height="90" viewBox="0 0 90 90" fill="none" xmlns="http://www.w3.org/2000/svg">
<rect x="4" y="4" width="82" height="81.6668" rx="40.8334" fill="#287279"/>
<rect x="4" y="4" width="82" height="81.6668" rx="40.8334" stroke="white" stroke-width="8"/>
<path d="M62.6667 24H29.3333C28.4493 24 27.6014 24.3512 26.9763 24.9763C26.3512 25.6014 26 26.4493 26 27.3333V39C26 49.9833 31.3167 56.6396 35.7771 60.2896C40.5812 64.2188 45.3604 65.5521 45.5688 65.6083C45.8552 65.6863 46.1573 65.6863 46.4438 65.6083C46.6521 65.5521 51.425 64.2188 56.2354 60.2896C60.6833 56.6396 66 49.9833 66 39V27.3333C66 26.4493 65.6488 25.6014 65.0237 24.9763C64.3986 24.3512 63.5507 24 62.6667 24ZM55.5167 38.5125L43.85 50.1792C43.6952 50.3341 43.5114 50.4571 43.3091 50.5409C43.1067 50.6248 42.8899 50.668 42.6708 50.668C42.4518 50.668 42.2349 50.6248 42.0326 50.5409C41.8303 50.4571 41.6465 50.3341 41.4917 50.1792L36.4917 45.1792C36.1789 44.8664 36.0032 44.4423 36.0032 44C36.0032 43.5577 36.1789 43.1336 36.4917 42.8208C36.8044 42.5081 37.2286 42.3324 37.6708 42.3324C38.1131 42.3324 38.5373 42.5081 38.85 42.8208L42.6667 46.6438L53.1542 36.1542C53.309 35.9993 53.4928 35.8765 53.6952 35.7927C53.8975 35.7089 54.1143 35.6657 54.3333 35.6657C54.5523 35.6657 54.7692 35.7089 54.9715 35.7927C55.1738 35.8765 55.3576 35.9993 55.5125 36.1542C55.6674 36.309 55.7902 36.4929 55.874 36.6952C55.9578 36.8975 56.0009 37.1143 56.0009 37.3333C56.0009 37.5523 55.9578 37.7692 55.874 37.9715C55.7902 38.1738 55.6674 38.3577 55.5125 38.5125H55.5167Z" fill="white"/>
</svg>
