<svg width="90" height="90" viewBox="0 0 90 90" fill="none" xmlns="http://www.w3.org/2000/svg">
<rect x="4" y="4" width="82" height="82.0006" rx="41" fill="#287279"/>
<rect x="4" y="4" width="82" height="82.0006" rx="41" stroke="#F8F3EA" stroke-width="8"/>
<path d="M65.8797 25.7656C65.8549 25.3374 65.6747 24.9334 65.3734 24.6302C65.072 24.3269 64.6705 24.1456 64.2451 24.1206C47.6963 23.1428 34.4408 28.1565 28.789 37.5628C26.83 40.7804 25.8646 44.511 26.0153 48.2815C26.1137 50.6926 26.6012 53.0716 27.4587 55.3253C27.5091 55.4639 27.5935 55.5876 27.7042 55.6846C27.8148 55.7816 27.948 55.8488 28.0915 55.88C28.2349 55.9113 28.3838 55.9054 28.5244 55.8631C28.665 55.8208 28.7927 55.7434 28.8955 55.6381L47.3724 36.7599C47.534 36.5973 47.7258 36.4684 47.9369 36.3804C48.148 36.2924 48.3743 36.2471 48.6028 36.2471C48.8313 36.2471 49.0575 36.2924 49.2686 36.3804C49.4797 36.4684 49.6715 36.5973 49.8331 36.7599C49.9947 36.9225 50.1228 37.1156 50.2103 37.328C50.2977 37.5404 50.3427 37.7681 50.3427 37.9981C50.3427 38.228 50.2977 38.4557 50.2103 38.6681C50.1228 38.8806 49.9947 39.0736 49.8331 39.2362L29.6411 59.8621L26.5566 62.9662C26.2358 63.2805 26.0443 63.7047 26.0201 64.1546C25.9959 64.6045 26.1409 65.0471 26.4261 65.3943C26.5824 65.5764 26.7742 65.7241 26.9897 65.8282C27.2052 65.9323 27.4397 65.9906 27.6785 65.9994C27.9174 66.0082 28.1555 65.9674 28.378 65.8795C28.6005 65.7915 28.8025 65.6584 28.9716 65.4884L32.6213 61.8156C35.695 63.3118 38.797 64.1278 41.8728 64.2371C42.1148 64.2459 42.3561 64.2503 42.5967 64.2503C46.0995 64.2593 49.5358 63.2883 52.522 61.4459C61.8692 55.7584 66.8536 42.4212 65.8797 25.7656Z" fill="white"/>
</svg>
